<svg xmlns="http://www.w3.org/2000/svg" viewBox="0 0 760 620" role="img" aria-labelledby="title desc">
  <title id="title">Louisiana and Mississippi Gulf Coast service area</title>
  <desc id="desc">Louisiana in yellow and Mississippi in blue shown together in their real adjacent Gulf Coast position with a red outline.</desc>
  <defs>
    <filter id="shadow" x="-20%" y="-20%" width="140%" height="140%">
      <feDropShadow dx="0" dy="10" stdDeviation="14" flood-color="#7ca0d3" flood-opacity="0.18"/>
    </filter>
  </defs>
  <g filter="url(#shadow)">
    <path d="M72.19 215.64 L299.06 217.16 L307.71 227.85 L301.10 231.92 L300.08 250.74 L313.82 262.44 L315.85 289.91 L304.66 311.27 L282.79 324.50 L277.19 345.35 L268.03 343.32 L266.51 377.40 L255.32 378.42 L261.93 396.73 L255.32 403.34 L430.81 403.34 L421.66 433.87 L436.92 454.21 L440.48 469.47 L451.67 479.14 L424.20 491.86 L422.17 501.01 L444.55 507.12 L454.21 492.37 L473.54 507.12 L472.02 518.82 L460.83 523.90 L439.97 519.33 L442.51 527.97 L435.39 541.20 L453.20 552.90 L481.68 556.46 L491.86 570.20 L500.00 572.23 L485.24 588.00 L468.97 584.95 L455.23 568.67 L421.15 560.02 L421.15 544.25 L404.36 549.34 L405.38 562.57 L397.75 574.77 L385.54 576.81 L376.38 563.07 L355.02 562.57 L347.39 576.81 L333.15 580.88 L317.88 572.23 L305.68 571.21 L293.98 548.32 L273.12 538.15 L264.98 539.67 L256.84 520.34 L232.42 522.89 L231.92 511.19 L208.01 522.38 L211.06 531.03 L192.75 539.17 L164.26 535.10 L131.19 522.38 L107.80 516.78 L57.43 521.36 L50.82 524.92 L42.68 515.77 L64.56 482.70 L57.43 464.90 L64.05 455.23 L61.00 442.51 L70.15 432.85 L79.82 408.94 L78.29 389.10 L52.86 351.46 L52.35 331.11 L32.00 310.76 L32.00 215.64 L72.19 215.64 Z" fill="#ffe600" stroke="#ea1a1a" stroke-width="5" stroke-linejoin="round" stroke-linecap="round"/>
    <path d="M549.34 32.00 L574.27 32.00 L583.93 41.67 L570.70 143.40 L549.34 319.92 L556.46 461.84 L546.29 465.91 L523.90 463.88 L514.75 457.77 L492.37 461.84 L461.34 472.53 L451.67 479.14 L440.48 469.47 L436.92 454.21 L421.66 433.87 L430.81 403.34 L255.32 403.34 L261.93 396.73 L255.32 378.42 L266.51 377.40 L268.03 343.32 L277.19 345.35 L282.79 324.50 L304.66 311.27 L315.85 289.91 L313.82 262.44 L300.08 250.74 L301.10 231.92 L307.71 227.85 L299.06 217.16 L306.18 204.45 L301.10 185.12 L309.24 177.49 L292.96 165.28 L307.71 136.79 L324.50 122.04 L318.90 111.86 L338.23 96.60 L337.72 90.50 L354.51 85.41 L352.98 67.10 L362.65 63.03 L369.26 47.26 L384.01 40.14 L378.42 32.00 L549.34 32.00 Z" fill="#1677ff" stroke="#ea1a1a" stroke-width="5" stroke-linejoin="round" stroke-linecap="round"/>
  </g>
</svg>
